:FULLY-SPECIFIED
:FORCE-ALL-JOINTS-BE-3DOF
:DEGREES
679
root 5.36615 16.0946 0.923185 15.6688 -23.2637 0.00478013
lfemur -37.2228 26.5939 -10.2235
ltibia 106.48 0 0
lfoot 22.7826 -21.0669 0
ltoes 13.7221 0 0
rfemur -38.4597 -11.4228 26.216
rtibia 61.5558 0 0
rfoot -24.2874 -6.12902 0
rtoes 0.158054 0 0
lowerback 0.983374 -6.67723 0.112928
upperback -1.88847 -8.89856 0.944236
thorax -2.35464 -4.44124 1.16379
lowerneck -9.48388 -3.62217 0.69944
upperneck 2.50615 -5.03228 2.08481
head 2.475 -2.43141 0.293524
lclavicle 9.0944e-14 -1.47101e-14 0
lhumerus 15.0837 -62.2156 54.3049
lradius 92.0489 0 0
lwrist 29.6201 0 0
lhand -14.5917 -1.26607 0
lfingers 7.12502 0 0
lthumb 11.5586 28.3952 0
rclavicle 9.0944e-14 -1.47101e-14 0
rhumerus -45.979 -9.43594 -44.2956
rradius 77.3869 0 0
rwrist -22.0059 0 0
rhand -26.8769 -47.7516 0
rfingers 7.12502 0 0
rthumb -0.301241 -797.731 0
680
root 5.35572 16.1742 1.05084 15.4394 -24.5336 0.0739978
lfemur -38.3686 26.4531 -7.34331
ltibia 109.778 0 0
lfoot 22.53 -21.0896 0
ltoes 14.2291 0 0
rfemur -36.9206 -10.8532 25.5799
rtibia 59.7607 0 0
rfoot -23.9188 -5.56744 0
rtoes 0.729491 0 0
lowerback 1.21709 -6.64642 -0.027058
upperback -1.85977 -8.86606 0.775589
thorax -2.4616 -4.42235 1.09549
lowerneck -9.19867 -3.64866 0.65477
upperneck 2.64636 -5.07122 2.24301
head 2.47632 -2.44643 0.354008
lclavicle 6.87749e-14 -1.38965e-14 0
lhumerus 17.4489 -59.9068 50.1507
lradius 92.0478 0 0
lwrist 29.9916 0 0
lhand -14.8955 -1.41557 0
lfingers 7.12502 0 0
lthumb 11.2655 28.2607 0
rclavicle 6.87749e-14 -1.38965e-14 0
rhumerus -45.4871 -8.98584 -42.6508
rradius 79.6243 0 0
rwrist -21.232 0 0
rhand -26.9892 -47.2369 0
rfingers 7.12502 0 0
rthumb -0.409718 -797.216 0
681
root 5.34456 16.2595 1.1875 15.1938 -25.8931 0.148101
lfemur -39.5953 26.3023 -4.25981
ltibia 113.308 0 0
lfoot 22.2595 -21.1139 0
ltoes 14.7718 0 0
rfemur -35.2729 -10.2435 24.8988
rtibia 57.839 0 0
rfoot -23.5242 -4.96622 0
rtoes 1.34126 0 0
lowerback 1.46731 -6.61344 -0.176925
upperback -1.82905 -8.83126 0.595037
thorax -2.5761 -4.40213 1.02238
lowerneck -8.89333 -3.67702 0.606946
upperneck 2.79647 -5.11291 2.41238
head 2.47772 -2.46251 0.418761
lclavicle 4.50409e-14 -1.30256e-14 0
lhumerus 19.9811 -57.435 45.7032
lradius 92.0466 0 0
lwrist 30.3894 0 0
lhand -15.2208 -1.57561 0
lfingers 7.12502 0 0
lthumb 10.9518 28.1168 0
rclavicle 4.50409e-14 -1.30256e-14 0
rhumerus -44.9604 -8.50396 -40.8898
rradius 82.0195 0 0
rwrist -20.4036 0 0
rhand -27.1095 -46.6858 0
rfingers 7.12502 0 0
rthumb -0.525852 -796.665 0
682
root 5.33303 16.3476 1.32866 14.9401 -27.2975 0.224648
lfemur -40.8624 26.1466 -1.07465
ltibia 116.956 0 0
lfoot 21.9802 -21.139 0
ltoes 15.3324 0 0
rfemur -33.5709 -9.61359 24.1953
rtibia 55.8539 0 0
rfoot -23.1166 -4.34518 0
rtoes 1.97321 0 0
lowerback 1.72578 -6.57936 -0.331734
upperback -1.79731 -8.79532 0.408534
thorax -2.69439 -4.38124 0.946851
lowerneck -8.57792 -3.70631 0.557547
upperneck 2.95153 -5.15597 2.58733
head 2.47918 -2.47912 0.485648
lclavicle 2.05245e-14 -1.21259e-14 0
lhumerus 22.5967 -54.8818 41.1091
lradius 92.0454 0 0
lwrist 30.8003 0 0
lhand -15.5568 -1.74094 0
lfingers 7.12502 0 0
lthumb 10.6276 27.9681 0
rclavicle 2.05245e-14 -1.21259e-14 0
rhumerus -44.4165 -8.00619 -39.0708
rradius 84.4938 0 0
rwrist -19.5478 0 0
rhand -27.2337 -46.1166 0
rfingers 7.12502 0 0
rthumb -0.645815 -796.095 0
683
root 5.32149 16.4357 1.46983 14.6864 -28.7019 0.301195
lfemur -42.1295 25.9909 2.11051
ltibia 120.603 0 0
lfoot 21.7008 -21.164 0
ltoes 15.8931 0 0
rfemur -31.8688 -8.98371 23.4918
rtibia 53.8687 0 0
rfoot -22.709 -3.72415 0
rtoes 2.60515 0 0
lowerback 1.98424 -6.54529 -0.486542
upperback -1.76557 -8.75937 0.22203
thorax -2.81267 -4.36036 0.871323
lowerneck -8.26251 -3.7356 0.508147
upperneck 3.10659 -5.19903 2.76227
head 2.48064 -2.49573 0.552536
lclavicle -3.99192e-15 -1.12262e-14 0
lhumerus 25.2123 -52.3286 36.5151
lradius 92.0442 0 0
lwrist 31.2112 0 0
lhand -15.8928 -1.90627 0
lfingers 7.12502 0 0
lthumb 10.3035 27.8194 0
rclavicle -3.99192e-15 -1.12262e-14 0
rhumerus -43.8725 -7.50843 -37.2519
rradius 86.9681 0 0
rwrist -18.6919 0 0
rhand -27.3579 -45.5474 0
rfingers 7.12502 0 0
rthumb -0.765778 -795.525 0
684
root 5.31033 16.521 1.60649 14.4408 -30.0614 0.375298
lfemur -43.3562 25.8401 5.19401
ltibia 124.133 0 0
lfoot 21.4303 -21.1883 0
ltoes 16.4358 0 0
rfemur -30.2211 -8.37394 22.8107
rtibia 51.947 0 0
rfoot -22.3144 -3.12293 0
rtoes 3.21692 0 0
lowerback 2.23446 -6.51231 -0.636409
upperback -1.73485 -8.72457 0.0414781
thorax -2.92717 -4.34014 0.798207
lowerneck -7.95717 -3.76396 0.460323
upperneck 3.2567 -5.24072 2.93164
head 2.48204 -2.51181 0.617289
lclavicle -2.77259e-14 -1.03552e-14 0
lhumerus 27.7445 -49.8568 32.0676
lradius 92.043 0 0
lwrist 31.609 0 0
lhand -16.2181 -2.06631 0
lfingers 7.12502 0 0
lthumb 9.98976 27.6755 0
rclavicle -2.77259e-14 -1.03552e-14 0
rhumerus -43.3458 -7.02655 -35.4909
rradius 89.3633 0 0
rwrist -17.8635 0 0
rhand -27.4782 -44.9963 0
rfingers 7.12502 0 0
rthumb -0.881912 -794.974 0
685
root 5.2999 16.6006 1.73414 14.2114 -31.3313 0.444516
lfemur -44.502 25.6993 8.0742
ltibia 127.431 0 0
lfoot 21.1777 -21.211 0
ltoes 16.9428 0 0
rfemur -28.682 -7.80437 22.1746
rtibia 50.1519 0 0
rfoot -21.9458 -2.56135 0
rtoes 3.78836 0 0
lowerback 2.46818 -6.4815 -0.776395
upperback -1.70615 -8.69207 -0.127169
thorax -3.03413 -4.32125 0.729911
lowerneck -7.67196 -3.79045 0.415653
upperneck 3.39691 -5.27966 3.08984
head 2.48336 -2.52683 0.677773
lclavicle -4.9895e-14 -9.54166e-15 0
lhumerus 30.1097 -47.548 27.9134
lradius 92.0419 0 0
lwrist 31.9805 0 0
lhand -16.5219 -2.21581 0
lfingers 7.12502 0 0
lthumb 9.69668 27.541 0
rclavicle -4.9895e-14 -9.54166e-15 0
rhumerus -42.8539 -6.57645 -33.8461
rradius 91.6007 0 0
rwrist -17.0896 0 0
rhand -27.5905 -44.4816 0
rfingers 7.12502 0 0
rthumb -0.990389 -794.459 0
686
root 5.29417 16.7674 1.88751 13.9755 -32.8639 0.702278
lfemur -45.2026 24.659 10.2476
ltibia 127.988 0 0
lfoot 20.1502 -19.6329 0
ltoes 18.5059 0 0
rfemur -26.6211 -7.09808 21.2406
rtibia 46.5221 0 0
rfoot -19.7196 -1.78074 0
rtoes 4.30428 0 0
lowerback 2.5816 -6.30393 -0.963829
upperback -1.69481 -8.47621 -0.418231
thorax -3.10399 -4.21263 0.537601
lowerneck -7.46157 -3.90088 0.344951
upperneck 3.53624 -5.44384 3.39912
head 2.50954 -2.60066 0.785
lclavicle -2.41118e-14 -3.78427e-15 0
lhumerus 30.8137 -45.2595 25.838
lradius 90.9517 0 0
lwrist 31.7626 0 0
lhand -17.0006 -2.6581 0
lfingers 7.12502 0 0
lthumb 9.23466 27.1168 0
rclavicle -2.41118e-14 -3.78427e-15 0
rhumerus -42.4199 -6.74217 -31.79
rradius 92.9453 0 0
rwrist -16.4431 0 0
rhand -28.2401 -43.955 0
rfingers 7.12502 0 0
rthumb -1.61774 -793.924 0
687
root 5.28804 16.946 2.0517 13.7229 -34.5047 0.978234
lfemur -45.9526 23.5452 12.5744
ltibia 128.585 0 0
lfoot 19.0503 -17.9434 0
ltoes 20.1792 0 0
rfemur -24.4148 -6.34192 20.2408
rtibia 42.6361 0 0
rfoot -17.3362 -0.945018 0
rtoes 4.85662 0 0
lowerback 2.70302 -6.11382 -1.16449
upperback -1.68267 -8.24511 -0.729839
thorax -3.17878 -4.09635 0.331717
lowerneck -7.23633 -4.0191 0.269258
upperneck 3.6854 -5.6196 3.73022
head 2.53758 -2.67971 0.899796
lclavicle 3.49134e-15 2.37952e-15 0
lhumerus 31.5675 -42.8096 23.616
lradius 89.7845 0 0
lwrist 31.5294 0 0
lhand -17.5131 -3.13162 0
lfingers 7.12502 0 0
lthumb 8.74004 26.6628 0
rclavicle 3.49134e-15 2.37952e-15 0
rhumerus -41.9552 -6.91959 -29.5887
rradius 94.3849 0 0
rwrist -15.751 0 0
rhand -28.9356 -43.3912 0
rfingers 7.12502 0 0
rthumb -2.28937 -793.351 0
688
root 5.2817 17.1305 2.22131 13.4619 -36.1995 1.26329
lfemur -46.7273 22.3947 14.9779
ltibia 129.202 0 0
lfoot 17.914 -16.1982 0
ltoes 21.9078 0 0
rfemur -22.1357 -5.56084 19.2079
rtibia 38.622 0 0
rfoot -14.8743 -0.08175 0
rtoes 5.42717 0 0
lowerback 2.82845 -5.91744 -1.37177
upperback -1.67013 -8.00639 -1.05172
thorax -3.25604 -3.97623 0.119044
lowerneck -7.00366 -4.14122 0.19107
upperneck 3.83948 -5.80117 4.07224
head 2.56653 -2.76136 1.01838
lclavicle 3.20045e-14 8.74652e-15 0
lhumerus 32.346 -40.2788 21.3209
lradius 88.5789 0 0
lwrist 31.2884 0 0
lhand -18.0425 -3.62075 0
lfingers 7.12502 0 0
lthumb 8.2291 26.1937 0
rclavicle 3.20045e-14 8.74652e-15 0
rhumerus -41.4753 -7.10287 -27.3148
rradius 95.8719 0 0
rwrist -15.0361 0 0
rhand -29.654 -42.8088 0
rfingers 7.12502 0 0
rthumb -2.98314 -792.759 0
689
root 5.27536 17.3151 2.39091 13.201 -37.8944 1.54834
lfemur -47.502 21.2443 17.3814
ltibia 129.818 0 0
lfoot 16.7777 -14.453 0
ltoes 23.6364 0 0
rfemur -19.8566 -4.77977 18.175
rtibia 34.608 0 0
rfoot -12.4124 0.781518 0
rtoes 5.99772 0 0
lowerback 2.95387 -5.72106 -1.57905
upperback -1.65759 -7.76768 -1.3736
thorax -3.3333 -3.85611 -0.0936275
lowerneck -6.771 -4.26334 0.112882
upperneck 3.99355 -5.98273 4.41427
head 2.59549 -2.843 1.13696
lclavicle 6.05177e-14 1.51135e-14 0
lhumerus 33.1246 -37.748 19.0257
lradius 87.3733 0 0
lwrist 31.0474 0 0
lhand -18.572 -4.10987 0
lfingers 7.12502 0 0
lthumb 7.71816 25.7246 0
rclavicle 6.05177e-14 1.51135e-14 0
rhumerus -40.9953 -7.28614 -25.0409
rradius 97.3588 0 0
rwrist -14.3211 0 0
rhand -30.3723 -42.2264 0
rfingers 7.12502 0 0
rthumb -3.67691 -792.166 0
690
root 5.26923 17.4937 2.5551 12.9484 -39.5352 1.8243
lfemur -48.252 20.1305 19.7082
ltibia 130.415 0 0
lfoot 15.6778 -12.7635 0
ltoes 25.3097 0 0
rfemur -17.6503 -4.02361 17.1752
rtibia 30.722 0 0
rfoot -10.029 1.61724 0
rtoes 6.55006 0 0
lowerback 3.07529 -5.53095 -1.77972
upperback -1.64545 -7.53658 -1.68521
thorax -3.40809 -3.73983 -0.299512
lowerneck -6.54576 -4.38156 0.0371887
upperneck 4.14271 -6.15849 4.74537
head 2.62353 -2.92205 1.25175
lclavicle 8.81208e-14 2.12773e-14 0
lhumerus 33.8784 -35.2981 16.8037
lradius 86.2061 0 0
lwrist 30.8142 0 0
lhand -19.0845 -4.58339 0
lfingers 7.12502 0 0
lthumb 7.22354 25.2706 0
rclavicle 8.81208e-14 2.12773e-14 0
rhumerus -40.5306 -7.46356 -22.8397
rradius 98.7984 0 0
rwrist -13.629 0 0
rhand -31.0678 -41.6626 0
rfingers 7.12502 0 0
rthumb -4.34854 -791.593 0
691
root 5.2635 17.6605 2.70847 12.7125 -41.0678 2.08206
lfemur -48.9526 19.0902 21.8816
ltibia 130.972 0 0
lfoot 14.6503 -11.1854 0
ltoes 26.8728 0 0
rfemur -15.5894 -3.31732 16.2412
rtibia 27.0922 0 0
rfoot -7.80278 2.39785 0
rtoes 7.06598 0 0
lowerback 3.18871 -5.35338 -1.96715
upperback -1.63411 -7.32072 -1.97627
thorax -3.47795 -3.63121 -0.491822
lowerneck -6.33537 -4.49199 -0.0335134
upperneck 4.28204 -6.32267 5.05465
head 2.64971 -2.99588 1.35898
lclavicle 1.13904e-13 2.70347e-14 0
lhumerus 34.5824 -33.0096 14.7283
lradius 85.1159 0 0
lwrist 30.5963 0 0
lhand -19.5632 -5.02568 0
lfingers 7.12502 0 0
lthumb 6.76152 24.8464 0
rclavicle 1.13904e-13 2.70347e-14 0
rhumerus -40.0966 -7.62928 -20.7835
rradius 100.143 0 0
rwrist -12.9825 0 0
rhand -31.7174 -41.136 0
rfingers 7.12502 0 0
rthumb -4.97589 -791.058 0
